<svg version="1.1" viewBox="0.0 0.0 5000.0 5000.0" fill="none" stroke="none" stroke-linecap="square" stroke-miterlimit="10" xmlns:xlink="http://www.w3.org/1999/xlink" xmlns="http://www.w3.org/2000/svg"><clipPath id="g1e41dd931a0_0_0.0"><path d="m0 0l5000.0 0l0 5000.0l-5000.0 0l0 -5000.0z" clip-rule="nonzero"/></clipPath><g clip-path="url(#g1e41dd931a0_0_0.0)"><path fill="#ffffff" d="m0 0l5000.0 0l0 5000.0l-5000.0 0z" fill-rule="evenodd"/><g filter="url(#shadowFilter-g1e41dd931a0_0_0.1)"><use xlink:href="#g1e41dd931a0_0_0.1" transform="matrix(1.0 0.0 0.0 1.0 99.98476955380592 -1.7452354330711282)"/></g><defs><filter id="shadowFilter-g1e41dd931a0_0_0.1" filterUnits="userSpaceOnUse"><feGaussianBlur in="SourceAlpha" stdDeviation="10.0" result="blur"/><feComponentTransfer in="blur" color-interpolation-filters="sRGB"><feFuncR type="linear" slope="0" intercept="0.0"/><feFuncG type="linear" slope="0" intercept="0.0"/><feFuncB type="linear" slope="0" intercept="0.0"/><feFuncA type="linear" slope="1.0" intercept="0"/></feComponentTransfer></filter></defs><g id="g1e41dd931a0_0_0.1"><path fill="#6aa84f" d="m3841.1826 143.19702l1015.6221 585.3543l-2384.189 4128.252l-1015.6221 -585.354z" fill-rule="evenodd"/><path stroke="#000000" stroke-width="24.0" stroke-linejoin="round" stroke-linecap="butt" d="m3841.1826 143.19702l1015.6221 585.3543l-2384.189 4128.252l-1015.6221 -585.354z" fill-rule="evenodd"/></g><g filter="url(#shadowFilter-g1e41dd931a0_0_0.2)"><use xlink:href="#g1e41dd931a0_0_0.2" transform="matrix(1.0 0.0 0.0 1.0 99.98476955380576 -1.7452354330711282)"/></g><defs><filter id="shadowFilter-g1e41dd931a0_0_0.2" filterUnits="userSpaceOnUse"><feGaussianBlur in="SourceAlpha" stdDeviation="10.0" result="blur"/><feComponentTransfer in="blur" color-interpolation-filters="sRGB"><feFuncR type="linear" slope="0" intercept="0.0"/><feFuncG type="linear" slope="0" intercept="0.0"/><feFuncB type="linear" slope="0" intercept="0.0"/><feFuncA type="linear" slope="1.0" intercept="0"/></feComponentTransfer></filter></defs><g id="g1e41dd931a0_0_0.2"><path fill="#6aa84f" d="m2086.8188 3283.4646l-583.7794 1013.63794l-1356.0 -782.9922l583.77954 -1013.6377z" fill-rule="evenodd"/><path stroke="#000000" stroke-width="24.0" stroke-linejoin="round" stroke-linecap="butt" d="m2086.8188 3283.4646l-583.7794 1013.63794l-1356.0 -782.9922l583.77954 -1013.6377z" fill-rule="evenodd"/></g><path fill="#6aa84f" d="m1235.0472 4128.2676l574.04724 -991.55884l443.08667 257.32275l-574.04724 991.55884z" fill-rule="evenodd"/><path fill="#6aa84f" d="m1999.4042 3356.4666l118.89758 -205.35449l165.48047 96.12598l-118.897705 205.35449z" fill-rule="evenodd"/></g></svg>