<svg version="1.1" viewBox="0.0 0.0 5000.0 5000.0" fill="none" stroke="none" stroke-linecap="square" stroke-miterlimit="10" xmlns:xlink="http://www.w3.org/1999/xlink" xmlns="http://www.w3.org/2000/svg"><clipPath id="g1e41dd931a0_1_0.0"><path d="m0 0l5000.0 0l0 5000.0l-5000.0 0l0 -5000.0z" clip-rule="nonzero"/></clipPath><g clip-path="url(#g1e41dd931a0_1_0.0)"><path fill="#ffffff" d="m0 0l5000.0 0l0 5000.0l-5000.0 0z" fill-rule="evenodd"/><g filter="url(#shadowFilter-g1e41dd931a0_1_0.1)"><use xlink:href="#g1e41dd931a0_1_0.1" transform="matrix(1.0 0.0 0.0 1.0 99.98476955380576 -1.7452362204725875)"/></g><defs><filter id="shadowFilter-g1e41dd931a0_1_0.1" filterUnits="userSpaceOnUse"><feGaussianBlur in="SourceAlpha" stdDeviation="10.0" result="blur"/><feComponentTransfer in="blur" color-interpolation-filters="sRGB"><feFuncR type="linear" slope="0" intercept="0.0"/><feFuncG type="linear" slope="0" intercept="0.0"/><feFuncB type="linear" slope="0" intercept="0.0"/><feFuncA type="linear" slope="1.0" intercept="0"/></feComponentTransfer></filter></defs><g id="g1e41dd931a0_1_0.1"><path fill="#ff0000" d="m4024.2769 148.00723l837.3545 837.38586l-3876.0947 3876.0947l-837.3544 -837.386z" fill-rule="evenodd"/><path stroke="#000000" stroke-width="24.0" stroke-linejoin="round" stroke-linecap="butt" d="m4024.2769 148.00723l837.3545 837.38586l-3876.0947 3876.0947l-837.3544 -837.386z" fill-rule="evenodd"/></g><g filter="url(#shadowFilter-g1e41dd931a0_1_0.2)"><use xlink:href="#g1e41dd931a0_1_0.2" transform="matrix(1.0 0.0 0.0 1.0 99.98476955380576 -1.7452362204725875)"/></g><defs><filter id="shadowFilter-g1e41dd931a0_1_0.2" filterUnits="userSpaceOnUse"><feGaussianBlur in="SourceAlpha" stdDeviation="10.0" result="blur"/><feComponentTransfer in="blur" color-interpolation-filters="sRGB"><feFuncR type="linear" slope="0" intercept="0.0"/><feFuncG type="linear" slope="0" intercept="0.0"/><feFuncB type="linear" slope="0" intercept="0.0"/><feFuncA type="linear" slope="1.0" intercept="0"/></feComponentTransfer></filter></defs><g id="g1e41dd931a0_1_0.2"><path fill="#ff0000" d="m4861.4736 4024.218l-837.35425 837.386l-3876.0945 -3876.0947l837.3544 -837.3858z" fill-rule="evenodd"/><path stroke="#000000" stroke-width="24.0" stroke-linejoin="round" stroke-linecap="butt" d="m4861.4736 4024.218l-837.35425 837.386l-3876.0945 -3876.0947l837.3544 -837.3858z" fill-rule="evenodd"/></g><path fill="#ff0000" d="m2581.786 1606.3861l821.51196 821.54333l-974.9922 974.9922l-821.51184 -821.54346z" fill-rule="evenodd"/></g></svg>